<?xml version="1.0" standalone="no"?>
<!DOCTYPE svg PUBLIC "-//W3C//DTD SVG 20010904//EN"
 "http://www.w3.org/TR/2001/REC-SVG-20010904/DTD/svg10.dtd">
<svg version="1.0" xmlns="http://www.w3.org/2000/svg"
 width="270.000000pt" height="270.000000pt" viewBox="0 0 270.000000 270.000000"
 preserveAspectRatio="xMidYMid meet">
<metadata>
Created by potrace 1.11, written by Peter Selinger 2001-2013
</metadata>
<g transform="translate(0.000000,270.000000) scale(0.100000,-0.100000)"
fill="#000000" stroke="none">
<path d="M0 1350 l0 -1350 1350 0 1350 0 0 1350 0 1350 -1350 0 -1350 0 0
-1350z m1230 1244 c15 -44 -6 -119 -52 -189 -63 -97 -316 -328 -540 -495 l-86
-65 24 -40 c146 -239 171 -349 99 -432 -34 -40 -48 -27 -130 119 -77 137 -164
278 -171 278 -6 0 -116 -233 -158 -332 -16 -37 -37 -75 -47 -84 -17 -15 -20
-14 -43 9 -58 58 -55 168 10 327 84 203 352 721 451 872 39 60 49 69 72 66 54
-6 78 -119 47 -222 -12 -40 -92 -193 -166 -319 -12 -20 -19 -37 -16 -37 10 0
299 235 401 327 55 50 137 129 181 177 88 94 105 99 124 40z m640 -607 c48
-24 88 -81 77 -110 -5 -14 -23 -17 -104 -18 -54 0 -132 -6 -173 -12 l-74 -12
-8 -38 c-13 -62 -45 -130 -167 -352 -63 -115 -168 -319 -234 -452 -129 -263
-134 -269 -180 -213 -52 61 -47 131 19 293 56 138 201 424 298 591 42 71 76
131 76 133 0 1 -34 3 -76 3 -99 0 -148 15 -197 61 -30 29 -38 43 -35 66 l3 28
180 17 c99 10 236 24 305 32 151 18 230 13 290 -17z m670 -670 c48 -24 88 -81
77 -110 -5 -14 -23 -17 -104 -18 -54 0 -132 -6 -173 -12 l-74 -12 -8 -38 c-13
-62 -45 -130 -167 -352 -63 -116 -168 -319 -234 -452 -129 -263 -134 -269
-180 -213 -52 61 -47 131 19 293 56 138 201 424 298 591 42 71 76 131 76 133
0 1 -34 3 -76 3 -99 0 -148 15 -197 61 -30 29 -38 43 -35 66 l3 28 180 17 c99
10 236 24 305 32 151 18 230 13 290 -17z"/>
</g>
</svg>
